<svg width="26" height="25" viewBox="0 0 26 25" fill="none" xmlns="http://www.w3.org/2000/svg">
<path d="M19 1H7C3.68629 1 1 3.56098 1 6.72011V18.1603C1 21.3195 3.68629 23.8805 7 23.8805H19C22.3137 23.8805 25 21.3195 25 18.1603V6.72011C25 3.56098 22.3137 1 19 1Z" stroke="#CCCCCC" stroke-width="2" stroke-linecap="round" stroke-linejoin="round"/>
<path d="M17.7999 11.7195C17.948 12.6716 17.7774 13.644 17.3124 14.4983C16.8475 15.3527 16.1117 16.0455 15.2099 16.4783C14.3081 16.911 13.2861 17.0616 12.2893 16.9087C11.2925 16.7558 10.3717 16.3071 9.65775 15.6265C8.94384 14.9459 8.47322 14.068 8.31282 13.1177C8.15242 12.1674 8.31042 11.1931 8.76433 10.3334C9.21824 9.47361 9.94496 8.7722 10.8411 8.32889C11.7373 7.88558 12.7572 7.72295 13.7559 7.86414C14.7746 8.00815 15.7178 8.4607 16.446 9.15495C17.1742 9.84919 17.6489 10.7483 17.7999 11.7195Z" stroke="#CCCCCC" stroke-width="2" stroke-linecap="round" stroke-linejoin="round"/>
<path d="M19.6 6.1481H19.612" stroke="#CCCCCC" stroke-width="2" stroke-linecap="round" stroke-linejoin="round"/>
</svg>
