<svg width="29" height="27" viewBox="0 0 29 27" fill="none" xmlns="http://www.w3.org/2000/svg">
<g clip-path="url(#clip0_233_5)">
<path d="M27.25 13.5C27.25 20.5416 21.5416 26.25 14.5 26.25C7.45838 26.25 1.75 20.5416 1.75 13.5C1.75 6.45838 7.45838 0.75 14.5 0.75C21.5416 0.75 27.25 6.45838 27.25 13.5Z" stroke="#CCCCCC" stroke-width="1.5"/>
<path d="M6.61855 13.3829C6.61855 13.3829 13.3685 10.6127 15.7096 9.63728C16.607 9.24713 19.6503 7.99854 19.6503 7.99854C19.6503 7.99854 21.055 7.45233 20.9379 8.7789C20.8988 9.32516 20.5867 11.237 20.2746 13.3049C19.8064 16.2312 19.2991 19.4306 19.2991 19.4306C19.2991 19.4306 19.2211 20.328 18.5578 20.4841C17.8946 20.6402 16.802 19.9379 16.607 19.7818C16.4509 19.6648 13.6807 17.9089 12.6662 17.0506C12.3931 16.8165 12.081 16.3483 12.7052 15.802C14.1099 14.5145 15.7876 12.9148 16.802 11.9003C17.2703 11.4321 17.7384 10.3396 15.7876 11.6662C13.0174 13.578 10.2862 15.3728 10.2862 15.3728C10.2862 15.3728 9.66188 15.763 8.49137 15.4118C7.32082 15.0607 5.95521 14.5925 5.95521 14.5925C5.95521 14.5925 5.01885 14.0072 6.61855 13.3829V13.3829Z" fill="#CCCCCC"/>
</g>
<defs>
<clipPath id="clip0_233_5">
<rect width="29" height="27" fill="white"/>
</clipPath>
</defs>
</svg>
