<svg width="27" height="22" viewBox="0 0 27 22" fill="none" xmlns="http://www.w3.org/2000/svg">
<path d="M25 2.01002C23.9989 2.68326 22.8904 3.19818 21.7173 3.53495C21.0876 2.84476 20.2508 2.35557 19.3201 2.13354C18.3893 1.91151 17.4095 1.96736 16.5131 2.29353C15.6167 2.61971 14.847 3.20047 14.3081 3.95727C13.7692 4.71406 13.4871 5.61039 13.5 6.52501V7.5217C11.6628 7.56712 9.84224 7.17865 8.2006 6.3909C6.55896 5.60316 5.14715 4.44058 4.09091 3.00671C4.09091 3.00671 -0.090909 11.9769 9.31818 15.9636C7.1651 17.357 4.60021 18.0556 2 17.957C11.4091 22.9404 22.9091 17.957 22.9091 6.49511C22.9081 6.21749 22.8801 5.94055 22.8255 5.66786C23.8924 4.66469 24.6454 3.39812 25 2.01002V2.01002Z" stroke="#CCCCCC" stroke-width="3" stroke-linecap="round" stroke-linejoin="round"/>
</svg>
