<svg width="24" height="14" viewBox="0 0 24 14" fill="none" xmlns="http://www.w3.org/2000/svg">
<path d="M23.4497 0.920313C23.6174 0.389364 23.4497 0 22.6568 0H20.0303C19.362 0 19.0566 0.33684 18.8889 0.706792C18.8889 0.706792 17.5535 3.81142 15.6611 5.82446C15.0503 6.41022 14.7712 6.5952 14.4382 6.5952C14.2718 6.5952 14.0298 6.41022 14.0298 5.87927V0.920313C14.0298 0.283174 13.837 0 13.2801 0H9.15281C8.73601 0 8.48449 0.294592 8.48449 0.575481C8.48449 1.17837 9.43067 1.31767 9.52769 3.01671V6.70253C9.52769 7.5098 9.37558 7.6571 9.04022 7.6571C8.15033 7.6571 5.9849 4.54105 4.69977 0.973979C4.44945 0.28089 4.19673 0.00114229 3.52602 0.00114229H0.900669C0.149712 0.00114229 0 0.337981 0 0.707934C0 1.37248 0.889889 4.66094 4.14523 9.01016C6.31546 11.9801 9.37079 13.59 12.1542 13.59C13.8226 13.59 14.0286 13.2326 14.0286 12.6161V10.3712C14.0286 9.65644 14.1879 9.51257 14.7161 9.51257C15.1042 9.51257 15.7725 9.69983 17.3307 11.1305C19.1105 12.8273 19.4051 13.5889 20.4052 13.5889H23.0305C23.7803 13.5889 24.1552 13.2315 23.9396 12.5258C23.7036 11.8236 22.8533 10.8017 21.725 9.59249C21.1118 8.90283 20.1956 8.16064 19.9165 7.78955C19.5273 7.31112 19.6398 7.09989 19.9165 6.67513C19.9177 6.67627 23.1168 2.38071 23.4497 0.920313V0.920313Z" fill="#CCCCCC"/>
</svg>
